<?xml version="1.0" encoding="utf-8"?>
<!-- Generator: Adobe Illustrator 16.0.0, SVG Export Plug-In . SVG Version: 6.00 Build 0)  -->
<!DOCTYPE svg PUBLIC "-//W3C//DTD SVG 1.1//EN" "http://www.w3.org/Graphics/SVG/1.1/DTD/svg11.dtd">
<svg version="1.1" id="Layer_1" xmlns="http://www.w3.org/2000/svg" xmlns:xlink="http://www.w3.org/1999/xlink" x="0px" y="0px"
	 width="612px" height="612px" viewBox="0 0 612 612" enable-background="new 0 0 612 612" xml:space="preserve">
<g>
	<path fill="#6BCC3E" d="M175.666,437.803h262.67c22.541,0,40.881-17.612,40.881-39.26V215.457c0-21.647-18.34-39.259-40.881-39.259
		h-262.67c-22.542,0-40.882,17.612-40.882,39.259v183.086C134.784,420.191,153.124,437.803,175.666,437.803z M422.548,210.857
		L307,308.738l-115.546-97.881H422.548z M169.445,239.667l118.799,100.297c2.436,2.056,5.533,3.189,8.722,3.189l20.063,0.001
		c3.188,0,6.287-1.133,8.724-3.19l118.804-100.3v158.881c-0.002,2.45-2.908,4.598-6.221,4.598H175.665c-3.314,0-6.22-2.148-6.22-4.6
		V239.667z"/>
	<path fill="#FFFFFF" d="M175.665,403.143h262.671c3.312,0,6.219-2.147,6.221-4.598V239.664l-118.804,100.3
		c-2.437,2.058-5.536,3.19-8.724,3.19l-20.063-0.001c-3.189,0-6.286-1.134-8.722-3.189L169.445,239.667v158.876
		C169.445,400.994,172.351,403.143,175.665,403.143z"/>
	<polygon fill="#FFFFFF" points="422.548,210.857 191.454,210.857 307,308.738 	"/>
	<path fill="#FFFFFF" d="M306,0C137.004,0,0,137.004,0,306c0,168.995,137.004,306,306,306c168.995,0,306-137.005,306-306
		C612,137.004,474.995,0,306,0z M479.217,398.543c0,21.647-18.34,39.26-40.881,39.26h-262.67c-22.542,0-40.882-17.611-40.882-39.26
		V215.457c0-21.647,18.34-39.259,40.882-39.259h262.67c22.541,0,40.881,17.612,40.881,39.259V398.543z"/>
</g>
</svg>
